<?xml version="1.0" standalone="no"?><!DOCTYPE svg PUBLIC "-//W3C//DTD SVG 1.1//EN" "http://www.w3.org/Graphics/SVG/1.1/DTD/svg11.dtd"><svg t="1481719989322" class="icon" style="" viewBox="0 0 1024 1024" version="1.1" xmlns="http://www.w3.org/2000/svg" p-id="1922" xmlns:xlink="http://www.w3.org/1999/xlink" width="200" height="200"><defs><style type="text/css"></style></defs><path d="M957.196013 509.643326c0 247.007697-200.237487 447.24416-447.242114 447.24416-247.003604 0-447.241091-200.236464-447.241091-447.24416 0-247.00258 200.236464-447.240067 447.241091-447.240067C756.959549 62.403259 957.196013 262.639722 957.196013 509.643326zM509.954923 127.751592c-210.913641 0-381.892757 170.979116-381.892757 381.891733 0 210.91671 170.979116 381.89685 381.892757 381.89685s381.89378-170.980139 381.89378-381.89685C891.848703 298.730709 720.868563 127.751592 509.954923 127.751592z" p-id="1923" fill="#AAABB6"></path><path d="M643.504568 569.519018l56.416917 14.248516c-11.830443 46.336328-33.108049 81.666998-63.830771 105.992009-30.730908 24.331151-68.294432 36.496216-112.684432 36.496216-45.947472 0-83.314521-9.351995-112.104217-28.060079-28.789697-18.710131-50.698682-45.803185-65.721841-81.279165-15.026228-35.474956-22.535249-73.572646-22.535249-114.281813 0-44.393069 8.479115-83.123162 25.445532-116.174929 16.960277-33.051767 41.097-58.159608 72.4071-75.317383 31.308053-17.157775 65.765843-25.735128 103.378485-25.735128 42.649356 0 78.517261 10.860349 107.596554 32.568766 29.079292 21.714558 49.335638 52.247968 60.778248 91.603301l-55.541991 13.08297c-9.888208-31.013341-24.238031-53.600779-43.038212-67.753103-18.808368-14.150278-42.457997-21.227464-70.957075-21.227464-32.764218 0-60.149938 7.849782-82.151022 23.553439-22.005176 15.70468-37.465287 36.786835-46.382377 63.246463-8.919137 26.465768-13.374612 53.756321-13.374612 81.864496 0 36.251645 5.279237 67.899436 15.845896 94.945419 10.564613 27.04189 26.996864 47.25321 49.291636 60.625776 22.291702 13.377682 46.429449 20.067035 72.41017 20.067035 31.594579 0 58.348919-9.108448 80.260975-27.336602C620.919177 632.43086 635.747907 605.383854 643.504568 569.519018z" p-id="1924" fill="#AAABB6"></path></svg>